<?xml version="1.0" encoding="UTF-8" standalone="no"?>
<!DOCTYPE svg PUBLIC "-//W3C//DTD SVG 1.1//EN" "http://www.w3.org/Graphics/SVG/1.1/DTD/svg11.dtd">
<svg width="100%" height="100%" viewBox="0 0 512 512" version="1.1" xmlns="http://www.w3.org/2000/svg" xmlns:xlink="http://www.w3.org/1999/xlink" xml:space="preserve" xmlns:serif="http://www.serif.com/" style="fill-rule:evenodd;clip-rule:evenodd;stroke-linecap:round;stroke-linejoin:round;stroke-miterlimit:1.5;">
    <g id="DH-Lotus" transform="matrix(0.97676,0,0,1.1295,-14.5614,19.7169)">
        <g id="Mid-Petals" serif:id="Mid Petals">
            <g id="Petal-Mid-3" serif:id="Petal Mid 3" transform="matrix(1,0,0,1,-1,7)">
                <path d="M248,61.048C250.151,56.042 256.912,47.175 262,40.995C265.88,36.282 270.439,32.103 274,29.12C277.03,26.581 277.384,26.403 280.186,28.953C284.321,32.718 287.752,36.71 292,42C296.768,47.938 299.533,51.164 306,60C307.453,61.985 302.613,42.774 296,32C290.84,23.593 283.631,17.089 280.186,14C277.045,11.183 276.619,11.461 274,14C271.188,16.727 263.25,24.071 256.793,34C248.856,46.205 246.811,63.814 248,61.048Z" style="fill:rgb(217,0,76);fill-opacity:0.83;stroke:rgb(217,0,76);stroke-width:4.74px;"/>
            </g>
            <g id="Petal-Mid-2" serif:id="Petal Mid 2" transform="matrix(1,0,0,1,2,0)">
                <path d="M216,202C216.964,205.712 210.345,182.904 212,172C213.469,162.327 217.326,156.674 224,148C233.839,135.213 239.742,128.281 248,120C255.295,112.684 264.918,103.899 270,98C272.318,95.309 273.582,95.247 276,98C279.834,102.366 293.295,114.84 300,120.802C311.245,130.8 318.332,139.265 324,146C333.957,157.831 336.507,163.53 338,172C339.627,181.233 335.896,201.986 336,200C336.285,194.537 336.919,186.995 335.001,178C333.206,169.586 326.161,161.099 318,152C310.497,143.635 304.285,137.633 300,134C291.143,126.491 280.31,117.808 276,114C272.877,111.241 272.874,111.064 270,114C266.357,117.721 258.703,124.574 248,134C245.087,136.565 236.634,145.537 230,154C222.17,163.988 219.938,164.294 216,178C214.289,183.955 215.468,199.95 216,202Z" style="fill:rgb(217,0,76);fill-opacity:0.83;stroke:rgb(217,0,76);stroke-width:4.74px;"/>
            </g>
            <g id="Petal-Mid-1" serif:id="Petal Mid 1" transform="matrix(1,0,0,1,-3,-8)">
                <path d="M230,300C228.867,303.329 226.313,324.882 230,342C233.005,355.953 239.737,367.619 248,379.015C257.071,391.526 272.26,402.798 278,406C281.278,407.829 281.305,407.891 284,406C290.273,401.598 299.968,393.535 310,380C316.466,371.276 323.598,357.847 326,344C329.915,321.438 325.968,301.644 324.993,300C324.236,298.723 324.054,317.025 322,330C319.268,347.257 312.93,359.008 308,366C298.281,379.785 284.789,392.248 283.186,394C281.521,395.819 280.334,395.859 278,394C276.134,392.514 259.063,377.883 250.882,366C242.421,353.711 237.036,342.604 234,330C231.24,318.541 231.018,297.009 230,300Z" style="fill:rgb(217,0,76);fill-opacity:0.83;stroke:rgb(217,0,76);stroke-width:4.74px;"/>
            </g>
        </g>
        <g id="Left-Petals" serif:id="Left Petals">
            <path id="Petal-Left-6" serif:id="Petal Left 6" d="M256,288C257.347,287.913 244.751,286.617 232.964,282C221.756,277.609 202.506,266.77 188,244C177.711,227.849 176.098,200.296 176,199.091C175.798,196.615 176.927,196.237 178.778,198C187.178,205.998 203.498,215.65 220,222C227.476,224.877 246.734,233.114 256,240C267.721,248.71 268.514,256.501 270,258C271.32,259.331 272.013,251.617 264,242C253.317,229.179 240.031,221.834 226,216C214.919,211.393 200.828,202.895 190,194C186.876,191.434 182.14,185.88 180.162,182C174.909,171.694 173.514,159.146 173.085,160C172.619,160.93 168.999,173.988 167.201,183.812C165.922,190.799 164.829,205.215 166.801,216C169.636,231.502 178.407,250.929 191.102,264C200.775,273.959 217.885,282.213 224,284C236.905,287.772 245.44,288.679 256,288Z" style="fill:rgb(217,0,76);fill-opacity:0.83;stroke:rgb(217,0,76);stroke-width:4.74px;"/>
            <path id="Petal-Left-5" serif:id="Petal Left 5" d="M172.893,140C172.662,142.903 166.824,113.822 182,82C196.232,52.159 224.244,32.07 225.419,32C226.246,31.951 226.948,45.37 244,78C247.161,84.048 257.183,104.503 258,106.518C259.333,109.805 246.964,92.774 236.895,78.894C225.391,63.037 224.504,58.564 221.393,52C220.631,50.393 220.219,51.28 219.2,52C206.133,61.239 194.732,76.931 185.031,94.62C177.887,107.646 174.112,124.655 172.893,140Z" style="fill:rgb(217,0,76);fill-opacity:0.83;stroke:rgb(217,0,76);stroke-width:4.74px;"/>
            <path id="Petal-Left-4" serif:id="Petal Left 4" d="M146,220C128.047,210.461 121.507,202.215 118,198C105.135,182.54 97.221,165.912 94,150C90.304,131.74 93.271,115.68 94,108C94.53,102.416 94.847,104.339 96,106C101.769,114.31 105.375,119.093 110,122C121.317,129.113 131.142,130.091 144,134C168.632,141.488 186.379,152.158 198,170C201.671,175.636 205.748,184.564 206,186C206.252,187.436 194.529,165.288 176,156C158.562,145.868 143.031,144.109 128,140.797C117.7,138.527 111.402,135.776 105.116,132C102.263,130.285 101.877,130.458 102,133.039C102.909,152.153 103.373,154.684 106,162C110.735,175.188 117.401,189.099 125.296,200C133.634,211.511 148.342,221.244 146,220Z" style="fill:rgb(217,0,76);fill-opacity:0.83;stroke:rgb(217,0,76);stroke-width:4.74px;"/>
            <g id="Petal-Left-3" serif:id="Petal Left 3" transform="matrix(1,0,0,1,-4,0)">
                <path d="M183.031,277.266C176.042,279.119 168.169,279.305 162,278C155.831,276.695 149.13,273.804 146,272C133.94,265.049 122.847,255.442 108,238C93.75,221.259 76.55,205.736 64,198C50.479,189.665 28.786,185.366 26,184.924C23.501,184.528 37.937,183.36 54,184C68.39,184.573 75.414,184.824 88,188C108.869,193.266 115.796,204.037 116.577,204.554C117.319,205.044 103.739,198.861 96,196.859C88.135,194.824 79.665,193.5 78.788,193.56C78.049,193.611 77.952,194.042 78.38,194.496C78.811,194.954 83.242,197.225 88.727,202C94.881,207.357 104.591,217.83 116,232C129.567,248.85 149.564,269.085 162,274C170.49,277.355 178.927,277.567 183.031,277.266Z" style="fill:rgb(217,0,76);fill-opacity:0.83;stroke:rgb(217,0,76);stroke-width:4.74px;"/>
            </g>
            <g id="Petal-Left-2" serif:id="Petal Left 2" transform="matrix(1,0,0,1,-3,0)">
                <path d="M120,296C136.281,298.029 151.195,294.334 152,294C152.881,293.635 144.67,299.689 128,301.544C117.94,302.663 108.981,301.199 98,298.737C82.249,295.204 71.887,288.176 48,286C26.28,284.022 11.773,294.688 12,293.593C13.794,284.945 22.782,267.446 42,252C63.947,234.36 93.758,237.511 92.403,238C90.901,238.543 77.817,238.811 58,250C42.134,258.959 32.898,274.034 32.532,274.526C32.071,275.146 31.771,276.036 33.079,276C34.037,275.974 58.759,274.15 86,286C87.821,286.792 105.744,293.752 120,296Z" style="fill:rgb(217,0,76);fill-opacity:0.83;stroke:rgb(217,0,76);stroke-width:4.74px;"/>
            </g>
            <path id="Petal-Left-1" serif:id="Petal Left 1" d="M198,288C181.241,291.78 166.432,299.068 153.154,312C135.764,328.939 126.216,361.9 127.16,362.692C128.243,363.6 142.727,357.629 166,346C196.074,330.973 204.51,315.647 204,316C202.382,317.12 183.139,328.984 168,336C164.811,337.478 151.007,343.116 146,345.302C143.514,346.388 142.781,346.975 144,344C144.836,341.96 150.156,328.444 162,316C182.578,294.38 200.416,287.455 198,288Z" style="fill:rgb(217,0,76);fill-opacity:0.83;stroke:rgb(217,0,76);stroke-width:4.74px;"/>
        </g>
        <g id="Right-Petals" serif:id="Right Petals" transform="matrix(-1,0,0,1,552.997,-2.78208)">
            <g id="Petal-Left-61" serif:id="Petal Left 6" transform="matrix(1,0,0,1,1,2)">
                <path d="M256,288C257.347,287.913 244.751,286.617 232.964,282C221.756,277.609 202.506,266.77 188,244C177.711,227.849 176.098,200.296 176,199.091C175.798,196.615 176.927,196.237 178.778,198C187.178,205.998 203.498,215.65 220,222C227.476,224.877 246.734,233.114 256,240C267.721,248.71 268.514,256.501 270,258C271.32,259.331 272.013,251.617 264,242C253.317,229.179 240.031,221.834 226,216C214.919,211.393 200.828,202.895 190,194C186.876,191.434 182.14,185.88 180.162,182C174.909,171.694 173.514,159.146 173.085,160C172.619,160.93 168.999,173.988 167.201,183.812C165.922,190.799 164.829,205.215 166.801,216C169.636,231.502 178.407,250.929 191.102,264C200.775,273.959 217.885,282.213 224,284C236.905,287.772 245.44,288.679 256,288Z" style="fill:rgb(217,0,76);fill-opacity:0.83;stroke:rgb(217,0,76);stroke-width:4.74px;"/>
            </g>
            <g id="Petal-Left-51" serif:id="Petal Left 5" transform="matrix(1,0,0,1,3,2)">
                <path d="M172.893,140C172.662,142.903 166.824,113.822 182,82C196.232,52.159 224.244,32.07 225.419,32C226.246,31.951 226.948,45.37 244,78C247.161,84.048 257.183,104.503 258,106.518C259.333,109.805 246.964,92.774 236.895,78.894C225.391,63.037 224.504,58.564 221.393,52C220.631,50.393 220.219,51.28 219.2,52C206.133,61.239 194.732,76.931 185.031,94.62C177.887,107.646 174.112,124.655 172.893,140Z" style="fill:rgb(217,0,76);fill-opacity:0.83;stroke:rgb(217,0,76);stroke-width:4.74px;"/>
            </g>
            <g id="Petal-Left-41" serif:id="Petal Left 4" transform="matrix(1,0,0,1,0,2)">
                <path d="M146,220C128.047,210.461 121.507,202.215 118,198C105.135,182.54 97.221,165.912 94,150C90.304,131.74 93.271,115.68 94,108C94.53,102.416 94.847,104.339 96,106C101.769,114.31 105.375,119.093 110,122C121.317,129.113 131.142,130.091 144,134C168.632,141.488 186.379,152.158 198,170C201.671,175.636 205.748,184.564 206,186C206.252,187.436 194.529,165.288 176,156C158.562,145.868 143.031,144.109 128,140.797C117.7,138.527 111.402,135.776 105.116,132C102.263,130.285 101.877,130.458 102,133.039C102.909,152.153 103.373,154.684 106,162C110.735,175.188 117.401,189.099 125.296,200C133.634,211.511 148.342,221.244 146,220Z" style="fill:rgb(217,0,76);fill-opacity:0.83;stroke:rgb(217,0,76);stroke-width:4.74px;"/>
            </g>
            <g id="Petal-Left-31" serif:id="Petal Left 3" transform="matrix(1,0,0,1,-5,2)">
                <path d="M183.031,277.266C176.042,279.119 168.169,279.305 162,278C155.831,276.695 149.13,273.804 146,272C133.94,265.049 122.847,255.442 108,238C93.75,221.259 76.55,205.736 64,198C50.479,189.665 28.786,185.366 26,184.924C23.501,184.528 37.937,183.36 54,184C68.39,184.573 75.414,184.824 88,188C108.869,193.266 115.796,204.037 116.577,204.554C117.319,205.044 103.739,198.861 96,196.859C88.135,194.824 79.665,193.5 78.788,193.56C78.049,193.611 77.952,194.042 78.38,194.496C78.811,194.954 83.242,197.225 88.727,202C94.881,207.357 104.591,217.83 116,232C129.567,248.85 149.564,269.085 162,274C170.49,277.355 178.927,277.567 183.031,277.266Z" style="fill:rgb(217,0,76);fill-opacity:0.83;stroke:rgb(217,0,76);stroke-width:4.74px;"/>
            </g>
            <g id="Petal-Left-21" serif:id="Petal Left 2" transform="matrix(1,0,0,1,-4,2)">
                <path d="M120,296C136.281,298.029 151.195,294.334 152,294C152.881,293.635 144.67,299.689 128,301.544C117.94,302.663 108.981,301.199 98,298.737C82.249,295.204 71.887,288.176 48,286C26.28,284.022 11.773,294.688 12,293.593C13.794,284.945 22.782,267.446 42,252C63.947,234.36 93.758,237.511 92.403,238C90.901,238.543 77.817,238.811 58,250C42.134,258.959 32.898,274.034 32.532,274.526C32.071,275.146 31.771,276.036 33.079,276C34.037,275.974 58.759,274.15 86,286C87.821,286.792 105.744,293.752 120,296Z" style="fill:rgb(217,0,76);fill-opacity:0.83;stroke:rgb(217,0,76);stroke-width:4.74px;"/>
            </g>
            <g id="Petal-Left-11" serif:id="Petal Left 1" transform="matrix(1,0,0,1,1,2)">
                <path d="M198,288C181.241,291.78 166.432,299.068 153.154,312C135.764,328.939 126.216,361.9 127.16,362.692C128.243,363.6 142.727,357.629 166,346C196.074,330.973 204.51,315.647 204,316C202.382,317.12 183.139,328.984 168,336C164.811,337.478 151.007,343.116 146,345.302C143.514,346.388 142.781,346.975 144,344C144.836,341.96 150.156,328.444 162,316C182.578,294.38 200.416,287.455 198,288Z" style="fill:rgb(217,0,76);fill-opacity:0.83;stroke:rgb(217,0,76);stroke-width:4.74px;"/>
            </g>
        </g>
    </g>
</svg>
